<svg width="262" height="57" viewBox="0 0 262 57" fill="none" xmlns="http://www.w3.org/2000/svg">
<path d="M15.848 56.32C14.2693 56.32 13.1387 55.9787 12.456 55.296C11.7733 54.5707 11.432 53.2267 11.432 51.264C11.432 49.9413 11.56 48.256 11.816 46.208C12.1147 44.1173 12.584 41.2587 13.224 37.632C14.3333 30.9333 15.208 25.1307 15.848 20.224C16.232 17.152 16.424 14.592 16.424 12.544C16.424 10.624 15.72 9.664 14.312 9.664C13.2027 9.664 11.8587 10.24 10.28 11.392C8.744 12.5013 7.03733 14.2933 5.16 16.768C4.56267 17.5787 3.90133 17.984 3.176 17.984C2.57867 17.984 2.04533 17.7067 1.576 17.152C1.14933 16.5547 0.936 15.8933 0.936 15.168C0.936 14.4853 1.064 13.8027 1.32 13.12C1.61867 12.3947 2.088 11.584 2.728 10.688C4.776 7.82933 7.05867 5.632 9.576 4.096C12.0933 2.51733 14.6107 1.728 17.128 1.728C19.4747 1.728 21.2667 2.47466 22.504 3.968C23.784 5.46133 24.424 7.63733 24.424 10.496C24.424 11.648 24.3173 13.0133 24.104 14.592C23.8907 16.128 23.6987 17.3867 23.528 18.368C23.3573 19.3493 23.2293 20.032 23.144 20.416C25.576 13.4613 28.3067 8.61866 31.336 5.888C34.3653 3.11466 37.6933 1.728 41.32 1.728C44.0933 1.728 46.2693 2.70933 47.848 4.672C49.4693 6.63466 50.28 9.408 50.28 12.992C50.28 14.4 50.088 16.1493 49.704 18.24C51.8373 12.352 54.3333 8.128 57.192 5.568C60.0507 3.008 63.336 1.728 67.048 1.728C70.0347 1.728 72.3173 2.688 73.896 4.608C75.5173 6.528 76.328 9.216 76.328 12.672C76.328 14.5493 76.0507 16.832 75.496 19.52L71.592 37.824C71.1653 39.9573 70.952 41.792 70.952 43.328C70.952 45.12 71.3573 46.464 72.168 47.36C73.0213 48.256 74.1947 48.704 75.688 48.704C77.096 48.704 78.4613 48.2347 79.784 47.296C81.1493 46.3573 82.7493 44.8 84.584 42.624C85.096 42.0267 85.672 41.728 86.312 41.728C86.8667 41.728 87.2933 41.984 87.592 42.496C87.9333 43.008 88.104 43.712 88.104 44.608C88.104 46.272 87.6987 47.5947 86.888 48.576C84.6693 51.264 82.472 53.2267 80.296 54.464C78.12 55.7013 75.8373 56.32 73.448 56.32C69.8213 56.32 66.984 55.2533 64.936 53.12C62.888 50.944 61.864 48.0427 61.864 44.416C61.864 41.8987 62.376 38.2507 63.4 33.472L65.96 21.76C66.0453 21.376 66.1947 20.6933 66.408 19.712C66.6213 18.7307 66.792 17.8133 66.92 16.96C67.048 16.064 67.112 15.1893 67.112 14.336C67.112 12.8427 66.8133 11.7333 66.216 11.008C65.6613 10.24 64.8507 9.856 63.784 9.856C61.7787 9.856 59.6667 11.1573 57.448 13.76C55.272 16.32 53.1813 20.5867 51.176 26.56C49.2133 32.5333 47.6133 40.2987 46.376 49.856C46.0773 52.416 45.544 54.144 44.776 55.04C44.0507 55.8933 42.856 56.32 41.192 56.32C39.7413 56.32 38.6747 55.9787 37.992 55.296C37.352 54.6133 37.032 53.3333 37.032 51.456C37.032 49.7067 37.2667 47.424 37.736 44.608C38.2053 41.7493 38.8027 38.4 39.528 34.56C41.4907 24.2347 42.472 17.5787 42.472 14.592C42.472 12.9707 42.152 11.776 41.512 11.008C40.9147 10.24 39.9973 9.856 38.76 9.856C36.6693 9.856 34.5147 11.0507 32.296 13.44C30.0773 15.7867 27.9013 19.9893 25.768 26.048C23.6773 32.064 21.928 40.2133 20.52 50.496C20.2213 52.672 19.7733 54.1867 19.176 55.04C18.6213 55.8933 17.512 56.32 15.848 56.32ZM111.491 41.728C112.046 41.728 112.472 41.984 112.771 42.496C113.112 43.008 113.283 43.712 113.283 44.608C113.283 46.3147 112.878 47.6373 112.067 48.576C110.488 50.496 108.248 52.2667 105.347 53.888C102.488 55.5093 99.4163 56.32 96.131 56.32C91.651 56.32 88.1737 55.104 85.699 52.672C83.2243 50.24 81.987 46.912 81.987 42.688C81.987 39.744 82.6057 37.0133 83.843 34.496C85.0803 31.936 86.787 29.9093 88.963 28.416C91.1817 26.9227 93.6777 26.176 96.451 26.176C98.9257 26.176 100.91 26.9227 102.403 28.416C103.896 29.8667 104.643 31.8507 104.643 34.368C104.643 37.312 103.576 39.8507 101.443 41.984C99.3523 44.0747 95.7897 45.7387 90.755 46.976C91.8217 48.9387 93.8483 49.92 96.835 49.92C98.755 49.92 100.931 49.2587 103.363 47.936C105.838 46.5707 107.971 44.8 109.763 42.624C110.275 42.0267 110.851 41.728 111.491 41.728ZM95.363 32.448C93.7843 32.448 92.4403 33.3653 91.331 35.2C90.2643 37.0347 89.731 39.2533 89.731 41.856V41.984C92.2483 41.3867 94.2323 40.4907 95.683 39.296C97.1337 38.1013 97.859 36.7147 97.859 35.136C97.859 34.3253 97.6243 33.6853 97.155 33.216C96.7283 32.704 96.131 32.448 95.363 32.448ZM136.616 41.728C137.171 41.728 137.597 41.984 137.896 42.496C138.237 43.008 138.408 43.712 138.408 44.608C138.408 46.3147 138.003 47.6373 137.192 48.576C135.613 50.496 133.373 52.2667 130.472 53.888C127.613 55.5093 124.541 56.32 121.256 56.32C116.776 56.32 113.299 55.104 110.824 52.672C108.349 50.24 107.112 46.912 107.112 42.688C107.112 39.744 107.731 37.0133 108.968 34.496C110.205 31.936 111.912 29.9093 114.088 28.416C116.307 26.9227 118.803 26.176 121.576 26.176C124.051 26.176 126.035 26.9227 127.528 28.416C129.021 29.8667 129.768 31.8507 129.768 34.368C129.768 37.312 128.701 39.8507 126.568 41.984C124.477 44.0747 120.915 45.7387 115.88 46.976C116.947 48.9387 118.973 49.92 121.96 49.92C123.88 49.92 126.056 49.2587 128.488 47.936C130.963 46.5707 133.096 44.8 134.888 42.624C135.4 42.0267 135.976 41.728 136.616 41.728ZM120.488 32.448C118.909 32.448 117.565 33.3653 116.456 35.2C115.389 37.0347 114.856 39.2533 114.856 41.856V41.984C117.373 41.3867 119.357 40.4907 120.808 39.296C122.259 38.1013 122.984 36.7147 122.984 35.136C122.984 34.3253 122.749 33.6853 122.28 33.216C121.853 32.704 121.256 32.448 120.488 32.448ZM161.741 41.728C162.296 41.728 162.722 41.984 163.021 42.496C163.362 43.008 163.533 43.712 163.533 44.608C163.533 46.3147 163.128 47.6373 162.317 48.576C160.482 50.8373 158.477 52.6933 156.301 54.144C154.125 55.5947 151.629 56.32 148.813 56.32C140.109 56.32 135.757 50.1973 135.757 37.952C135.757 36.0747 135.821 34.176 135.949 32.256H133.453C132.173 32.256 131.298 32.0213 130.829 31.552C130.402 31.0827 130.189 30.336 130.189 29.312C130.189 26.9227 131.149 25.728 133.069 25.728H136.717C137.442 21.0347 138.552 16.7467 140.045 12.864C141.538 8.98133 143.33 5.888 145.421 3.584C147.554 1.28 149.837 0.127998 152.269 0.127998C154.061 0.127998 155.469 0.917332 156.493 2.496C157.517 4.07467 158.029 6.05866 158.029 8.448C158.029 15.0613 155.256 20.8213 149.709 25.728H156.877C157.56 25.728 158.05 25.8773 158.349 26.176C158.648 26.4747 158.797 27.0293 158.797 27.84C158.797 30.784 156.386 32.256 151.565 32.256H143.757C143.672 34.3893 143.629 36.0533 143.629 37.248C143.629 41.6853 144.141 44.8 145.165 46.592C146.232 48.384 147.896 49.28 150.157 49.28C151.992 49.28 153.613 48.7253 155.021 47.616C156.429 46.5067 158.093 44.8427 160.013 42.624C160.525 42.0267 161.101 41.728 161.741 41.728ZM150.541 6.272C149.901 6.272 149.176 7.08267 148.365 8.704C147.597 10.2827 146.85 12.5013 146.125 15.36C145.442 18.176 144.866 21.312 144.397 24.768C146.914 22.592 148.792 20.16 150.029 17.472C151.309 14.7413 151.949 12.2667 151.949 10.048C151.949 7.53067 151.48 6.272 150.541 6.272ZM170.098 56.32C168.519 56.32 167.389 55.9787 166.706 55.296C166.023 54.5707 165.682 53.2267 165.682 51.264C165.682 49.9413 165.81 48.256 166.066 46.208C166.365 44.1173 166.834 41.2587 167.474 37.632C168.583 30.9333 169.458 25.1307 170.098 20.224C170.482 17.152 170.674 14.592 170.674 12.544C170.674 10.624 169.97 9.664 168.562 9.664C167.453 9.664 166.109 10.24 164.53 11.392C162.994 12.5013 161.287 14.2933 159.41 16.768C158.813 17.5787 158.151 17.984 157.426 17.984C156.829 17.984 156.295 17.7067 155.826 17.152C155.399 16.5547 155.186 15.8933 155.186 15.168C155.186 14.4853 155.314 13.8027 155.57 13.12C155.869 12.3947 156.338 11.584 156.978 10.688C159.026 7.82933 161.309 5.632 163.826 4.096C166.343 2.51733 168.861 1.728 171.378 1.728C173.725 1.728 175.517 2.47466 176.754 3.968C178.034 5.46133 178.674 7.63733 178.674 10.496C178.674 11.648 178.567 13.0133 178.354 14.592C178.141 16.128 177.949 17.3867 177.778 18.368C177.607 19.3493 177.479 20.032 177.394 20.416C179.826 13.4613 182.557 8.61866 185.586 5.888C188.615 3.11466 191.943 1.728 195.57 1.728C198.343 1.728 200.519 2.70933 202.098 4.672C203.719 6.63466 204.53 9.408 204.53 12.992C204.53 14.4 204.338 16.1493 203.954 18.24C206.087 12.352 208.583 8.128 211.442 5.568C214.301 3.008 217.586 1.728 221.298 1.728C224.285 1.728 226.567 2.688 228.146 4.608C229.767 6.528 230.578 9.216 230.578 12.672C230.578 14.5493 230.301 16.832 229.746 19.52L225.842 37.824C225.415 39.9573 225.202 41.792 225.202 43.328C225.202 45.12 225.607 46.464 226.418 47.36C227.271 48.256 228.445 48.704 229.938 48.704C231.346 48.704 232.711 48.2347 234.034 47.296C235.399 46.3573 236.999 44.8 238.834 42.624C239.346 42.0267 239.922 41.728 240.562 41.728C241.117 41.728 241.543 41.984 241.842 42.496C242.183 43.008 242.354 43.712 242.354 44.608C242.354 46.272 241.949 47.5947 241.138 48.576C238.919 51.264 236.722 53.2267 234.546 54.464C232.37 55.7013 230.087 56.32 227.698 56.32C224.071 56.32 221.234 55.2533 219.186 53.12C217.138 50.944 216.114 48.0427 216.114 44.416C216.114 41.8987 216.626 38.2507 217.65 33.472L220.21 21.76C220.295 21.376 220.445 20.6933 220.658 19.712C220.871 18.7307 221.042 17.8133 221.17 16.96C221.298 16.064 221.362 15.1893 221.362 14.336C221.362 12.8427 221.063 11.7333 220.466 11.008C219.911 10.24 219.101 9.856 218.034 9.856C216.029 9.856 213.917 11.1573 211.698 13.76C209.522 16.32 207.431 20.5867 205.426 26.56C203.463 32.5333 201.863 40.2987 200.626 49.856C200.327 52.416 199.794 54.144 199.026 55.04C198.301 55.8933 197.106 56.32 195.442 56.32C193.991 56.32 192.925 55.9787 192.242 55.296C191.602 54.6133 191.282 53.3333 191.282 51.456C191.282 49.7067 191.517 47.424 191.986 44.608C192.455 41.7493 193.053 38.4 193.778 34.56C195.741 24.2347 196.722 17.5787 196.722 14.592C196.722 12.9707 196.402 11.776 195.762 11.008C195.165 10.24 194.247 9.856 193.01 9.856C190.919 9.856 188.765 11.0507 186.546 13.44C184.327 15.7867 182.151 19.9893 180.018 26.048C177.927 32.064 176.178 40.2133 174.77 50.496C174.471 52.672 174.023 54.1867 173.426 55.04C172.871 55.8933 171.762 56.32 170.098 56.32ZM260.109 43.648C260.664 43.648 261.09 43.904 261.389 44.416C261.73 44.928 261.901 45.632 261.901 46.528C261.901 48.064 261.538 49.3867 260.813 50.496C259.618 52.3307 258.04 53.76 256.077 54.784C254.157 55.808 251.853 56.32 249.165 56.32C245.069 56.32 241.89 55.104 239.629 52.672C237.368 50.1973 236.237 46.8693 236.237 42.688C236.237 39.744 236.856 37.0133 238.093 34.496C239.33 31.936 241.037 29.9093 243.213 28.416C245.432 26.9227 247.928 26.176 250.701 26.176C253.176 26.176 255.16 26.9227 256.653 28.416C258.146 29.8667 258.893 31.8507 258.893 34.368C258.893 37.312 257.826 39.8507 255.693 41.984C253.602 44.0747 250.018 45.7387 244.941 46.976C245.965 48.9387 247.693 49.92 250.125 49.92C251.874 49.92 253.304 49.5147 254.413 48.704C255.565 47.8933 256.888 46.528 258.381 44.608C258.893 43.968 259.469 43.648 260.109 43.648ZM249.613 32.448C248.034 32.448 246.69 33.3653 245.581 35.2C244.514 37.0347 243.981 39.2533 243.981 41.856V41.984C246.498 41.3867 248.482 40.4907 249.933 39.296C251.384 38.1013 252.109 36.7147 252.109 35.136C252.109 34.3253 251.874 33.6853 251.405 33.216C250.978 32.704 250.381 32.448 249.613 32.448Z" fill="#FF4090"/>
</svg>
